<?xml version="1.0" encoding="UTF-8" standalone="no"?>
<!-- Created with Inkscape (http://www.inkscape.org/) -->

<svg
   xmlns:dc="http://purl.org/dc/elements/1.1/"
   xmlns:cc="http://creativecommons.org/ns#"
   xmlns:rdf="http://www.w3.org/1999/02/22-rdf-syntax-ns#"
   xmlns:svg="http://www.w3.org/2000/svg"
   xmlns="http://www.w3.org/2000/svg"
   version="1.1"
   width="17.99999"
   height="18.00001"
   id="svg6522">
  <defs
     id="defs6524" />
  <metadata
     id="metadata6527">
    <rdf:RDF>
      <cc:Work
         rdf:about="">
        <dc:format>image/svg+xml</dc:format>
        <dc:type
           rdf:resource="http://purl.org/dc/dcmitype/StillImage" />
        <dc:title></dc:title>
      </cc:Work>
    </rdf:RDF>
  </metadata>
  <g
     transform="translate(0.44058898,1.2440645)"
     id="layer1">
    <path
       d="m 8.633711,-1.2440645 -3.32111,3.77456 1.98426,0.0318 -0.0612,3.82676 -3.8268,-0.0611 0.0318,-1.9842 -2.15777,1.95016 -1.72347998,1.3900996 3.77460998,3.3210499 0.0318,-1.9842399 3.82681,0.0613 -0.0613,3.8267399 -1.98428,-0.0318 3.19863,3.87888 1.44456,-1.67807 2.0183,-2.09421 -1.98428,-0.0318 0.0612,-3.8267599 0.1417,0.004 3.68506,0.0589 -0.0318,1.9842599 3.87898,-3.1985899 -1.67812,-1.4445196 -2.09424,-2.01826 -0.0318,1.98422 -3.68508,-0.0589 -0.1417,-0.004 0.0612,-3.82676 1.98426,0.0318 -1.95024,-2.15768999 -1.39011,-1.72345001 z"
       id="path5237-5-0"
       style="color:#000000;fill:#ffffff;fill-opacity:1;fill-rule:nonzero;stroke:none;stroke-width:0.77999997;marker:none;visibility:visible;display:inline;overflow:visible;enable-background:accumulate" />
  </g>
</svg>
