<?xml version="1.0" encoding="UTF-8" standalone="no"?>
<!-- Created with Inkscape (http://www.inkscape.org/) -->

<svg
   xmlns:dc="http://purl.org/dc/elements/1.1/"
   xmlns:cc="http://creativecommons.org/ns#"
   xmlns:rdf="http://www.w3.org/1999/02/22-rdf-syntax-ns#"
   xmlns:svg="http://www.w3.org/2000/svg"
   xmlns="http://www.w3.org/2000/svg"
   version="1.1"
   width="25"
   height="18"
   id="svg6429">
  <defs
     id="defs6431" />
  <metadata
     id="metadata6434">
    <rdf:RDF>
      <cc:Work
         rdf:about="">
        <dc:format>image/svg+xml</dc:format>
        <dc:type
           rdf:resource="http://purl.org/dc/dcmitype/StillImage" />
        <dc:title></dc:title>
      </cc:Work>
    </rdf:RDF>
  </metadata>
  <g
     transform="translate(-567.5,-537.6479)"
     id="layer1">
    <g
       transform="matrix(0.81143001,0,0,0.75982363,-202.63272,10.844089)"
       id="g14879"
       style="display:inline">
      <path
         d="m 951.20014,716.58205 c -0.50114,-0.25347 -1.09915,-0.78119 -1.4386,-1.26946 l -0.58098,-0.83567 -0.0552,-6.96367 c -0.0584,-7.38891 -0.0456,-7.51887 0.87831,-8.75494 0.8678,-1.16098 1.73025,-1.40745 4.92525,-1.40745 2.80611,0 2.83108,-0.005 2.83526,-0.43378 0.007,-0.66976 0.69054,-2.02403 1.28854,-2.55123 1.10554,-0.97465 1.77832,-1.09246 5.86601,-1.02728 3.7373,0.0596 3.76937,0.0638 4.56361,0.58983 0.96608,0.63995 1.38315,1.24154 1.68404,2.42932 l 0.22719,0.89674 2.96748,0.0964 c 3.25009,0.10555 3.74723,0.24931 4.67452,1.35133 0.87563,1.04063 0.92481,1.55493 0.86002,8.99376 l -0.0607,6.97119 -0.59672,0.74056 c -0.32819,0.40732 -0.93548,0.93436 -1.34954,1.17117 l -0.75285,0.43064 -12.53896,0.002 -12.53896,0.002 -0.85763,-0.4338 z m 16.23701,-2.88838 c 1.51851,-0.69519 2.73497,-1.88264 3.48092,-3.39794 0.57392,-1.16576 0.62658,-1.42702 0.62658,-3.10834 0,-1.63189 -0.0615,-1.96097 -0.55479,-2.96547 -1.02852,-2.09467 -2.53527,-3.33126 -4.75049,-3.89876 -2.3622,-0.6052 -4.68104,0.02 -6.54706,1.76562 -3.34913,3.13271 -2.90617,8.42495 0.92169,11.01176 1.4324,0.96799 2.35473,1.2145 4.28309,1.14472 1.06864,-0.0387 1.7364,-0.18364 2.54006,-0.55159 z m -3.98983,-2.59497 c -0.74037,-0.15511 -1.93163,-1.14384 -2.40501,-1.99608 -1.45534,-2.6202 0.46283,-5.86826 3.46268,-5.8634 3.6965,0.006 5.4341,4.54895 2.65102,6.93115 -1.07718,0.92204 -2.28995,1.2256 -3.70869,0.92833 z"
         id="path11534"
         style="opacity:0.63786005;fill:#1a1a1a;fill-opacity:1" />
    </g>
  </g>
</svg>
