<?xml version="1.0" encoding="UTF-8" standalone="no"?>
<!-- Created with Inkscape (http://www.inkscape.org/) -->

<svg
   xmlns:dc="http://purl.org/dc/elements/1.1/"
   xmlns:cc="http://creativecommons.org/ns#"
   xmlns:rdf="http://www.w3.org/1999/02/22-rdf-syntax-ns#"
   xmlns:svg="http://www.w3.org/2000/svg"
   xmlns="http://www.w3.org/2000/svg"
   version="1.1"
   width="25"
   height="25"
   id="svg6334">
  <defs
     id="defs6336" />
  <metadata
     id="metadata6339">
    <rdf:RDF>
      <cc:Work
         rdf:about="">
        <dc:format>image/svg+xml</dc:format>
        <dc:type
           rdf:resource="http://purl.org/dc/dcmitype/StillImage" />
        <dc:title></dc:title>
      </cc:Work>
    </rdf:RDF>
  </metadata>
  <g
     transform="translate(-8.4999981,-8.5000088)"
     id="layer1">
    <g
       transform="matrix(0.92745521,0,0,0.92676662,-825.77152,-633.90493)"
       id="g14874"
       style="display:inline">
      <path
         d="m 911.30232,718.45058 c -0.11866,-0.93111 -0.29815,-1.75448 -0.39884,-1.82971 -0.10076,-0.0752 -0.52432,-0.23435 -0.94135,-0.35362 -0.41706,-0.11927 -1.09386,-0.38708 -1.50402,-0.59517 l -0.74575,-0.37836 -1.37975,0.98694 c -0.75888,0.54281 -1.47044,0.98694 -1.58125,0.98694 -0.23086,0 -1.98838,-1.62038 -2.21323,-2.04053 -0.11245,-0.21011 0.0997,-0.62416 0.85699,-1.67288 0.55353,-0.76651 1.00642,-1.45343 1.00642,-1.52653 0,-0.0731 -0.14455,-0.38364 -0.32126,-0.69013 -0.17669,-0.3065 -0.45205,-0.98094 -0.61189,-1.49876 l -0.29063,-0.9415 -1.78927,-0.32227 -1.78925,-0.32228 -0.05,-1.34746 c -0.0703,-1.89554 -0.0136,-2.04075 0.84805,-2.17475 2.59378,-0.40338 2.81091,-0.46534 2.91865,-0.83293 0.0585,-0.19961 0.33555,-0.86964 0.61569,-1.48897 l 0.50931,-1.12604 -1.02516,-1.47337 -1.02516,-1.47336 0.62632,-0.68638 c 0.34447,-0.37752 0.9094,-0.94048 1.2554,-1.25105 l 0.62909,-0.56465 1.22444,0.91424 c 0.67343,0.50284 1.32663,0.97451 1.45156,1.04819 0.13352,0.0787 0.68914,-0.043 1.34801,-0.29514 0.6165,-0.236 1.24464,-0.46673 1.3959,-0.51273 0.1994,-0.0607 0.35248,-0.51562 0.55694,-1.65523 0.42681,-2.37897 0.22534,-2.16171 2.00182,-2.15875 0.85101,9.5e-4 1.63912,0.0609 1.75135,0.13226 0.15607,0.0992 0.71813,2.77272 0.72203,3.43449 3.4e-4,0.0632 0.17128,0.16588 0.37981,0.22805 0.20852,0.0621 0.80848,0.30212 1.33325,0.53325 l 0.95412,0.42022 1.51809,-1.05202 1.51809,-1.05201 0.68407,0.54179 c 0.37624,0.29799 0.95098,0.85362 1.27719,1.23473 0.50838,0.59393 0.563,0.73594 0.38227,0.9939 -0.11598,0.16553 -0.57838,0.82691 -1.02758,1.46973 l -0.81673,1.16877 0.49863,1.06933 c 0.27423,0.58812 0.54012,1.19037 0.59086,1.33832 0.0668,0.19446 0.58221,0.35296 1.86059,0.57207 1.7383,0.29797 1.77003,0.31164 1.86875,0.80522 0.19109,0.95548 0.11452,2.94606 -0.11672,3.03481 -0.11939,0.0458 -0.91225,0.18171 -1.7618,0.30195 l -1.54466,0.21861 -0.32721,1.02198 c -0.17999,0.56209 -0.42296,1.25648 -0.53993,1.54311 -0.20457,0.50124 -0.17322,0.5777 0.82077,2.00232 l 1.03346,1.48119 -0.31913,0.44096 c -0.17552,0.24252 -0.69788,0.81092 -1.16078,1.2631 l -0.84164,0.82215 -1.44464,-1.04291 -1.44464,-1.04291 -1.30776,0.61754 c -0.71928,0.33966 -1.42054,0.67413 -1.55837,0.74328 -0.15828,0.0794 -0.37748,0.77138 -0.59492,1.878 l -0.34433,1.75226 -1.70226,0.0478 -1.70228,0.0478 -0.21574,-1.69292 z m 3.62755,-8.67063 c 2.32432,-1.36215 2.43049,-4.74296 0.19664,-6.26092 -1.65101,-1.12189 -3.87075,-0.76863 -5.03735,0.80167 -1.48903,2.00431 -0.82476,4.55425 1.47251,5.65258 1.06953,0.51136 2.28478,0.4416 3.3682,-0.19333 z"
         id="path14835"
         style="fill:#6d6d6d;fill-opacity:1" />
    </g>
  </g>
</svg>
